# AST/ASF file generated using VICON BodyLanguage
# -----------------------------------------------
:version 1.10
:name VICON
:units
  mass 1.0
  length 0.45
  angle deg
:documentation
   .ast/.asf automatically generated from VICON data using
   VICON BodyBuilder and BodyLanguage model FoxedUp or BRILLIANT.MOD
:root
   order TX TY TZ RX RY RZ
   axis XYZ
   position 0 0 0  
   orientation 0 0 0 
:bonedata
  begin
     id 1 
     name lhipjoint
     direction 0.603808 -0.713975 0.35448 
     length 2.2025 
     axis 0 0 0  XYZ
  end
  begin
     id 2 
     name lfemur
     direction 0.34202 -0.939693 0  
     length 6.55877  
     axis 0 0 20  XYZ
    dof rx ry rz
    limits (-160.0 20.0)
           (-70.0 70.0)
           (-60.0 70.0)
  end
  begin
     id 3 
     name ltibia
     direction 0.34202 -0.939693 0   
     length 6.80302   
     axis 0 0 20   XYZ
    dof rx
    limits (-10.0 170.0)
  end
  begin
     id 4 
     name lfoot
     direction 0.091848 -0.25235 0.963267   
     length 2.03446   
     axis -90 7.62852e-016 20   XYZ
    dof rx rz
    limits (-45.0 90.0)
           (-70.0 20.0)
  end
  begin
     id 5 
     name ltoes
     direction 1.53608e-011 -4.21925e-011 1   
     length 1.02033   
     axis -90 7.62852e-016 20   XYZ
    dof rx
    limits (-90.0 20.0)
  end
  begin
     id 6 
     name rhipjoint
     direction -0.587285 -0.724947 0.359928   
     length 2.16916  
     axis 0 0 0  XYZ 
  end
  begin
     id 7 
     name rfemur
     direction -0.34202 -0.939693 0   
     length 6.43173   
     axis 0 0 -20   XYZ
    dof rx ry rz
    limits (-160.0 20.0)
           (-70.0 70.0)
           (-70.0 60.0)
  end
  begin
     id 8 
     name rtibia
     direction -0.34202 -0.939693 0   
     length 6.70662   
     axis 0 0 -20   XYZ
    dof rx
    limits (-10.0 170.0)
 end
 begin
     id 9 
     name rfoot
     direction -0.11854 -0.325686 0.938018   
     length 2.0773  
     axis -90 -7.62852e-016 -20   XYZ
    dof rx rz
    limits (-45.0 90.0)
           (-20.0 70.0)
  end
  begin
     id 10 
     name rtoes
     direction -1.53547e-011 -4.21838e-011 1   
     length 1.03267   
     axis -90 -7.62852e-016 -20   XYZ
    dof rx
    limits (-90.0 20.0)
  end
  begin
     id 11 
     name lowerback
     direction -0.0286554 0.999539 0.0100613   
     length 2.08751   
     axis 0 0 0   XYZ
    dof rx ry rz
    limits (-20.0 45.0)
           (-30.0 30.0)
           (-30.0 30.0)
  end
  begin
     id 12 
     name upperback
     direction 0.0227093 0.999705 -0.00860929   
     length 2.08517   
     axis 0 0 0   XYZ
    dof rx ry rz
    limits (-20.0 45.0)
           (-30.0 30.0)
           (-30.0 30.0)
  end
  begin
     id 13 
     name thorax
     direction 0.0351627 0.999285 -0.013892   
     length 2.08412   
     axis 0 0 0   XYZ
    dof rx ry rz
    limits (-20.0 45.0)
           (-30.0 30.0)
           (-30.0 30.0)
  end
  begin
     id 14 
     name lowerneck
     direction -0.0696283 0.997344 0.0213922   
     length 1.44164   
     axis 0 0 0   XYZ
    dof rx ry rz
    limits (-20.0 45.0)
           (-30.0 30.0)
           (-30.0 30.0)
  end
  begin
     id 15 
     name upperneck
     direction 0.0531 0.990412 -0.127531   
     length 1.45022   
     axis 0 0 0   XYZ
    dof rx ry rz
    limits (-20.0 45.0)
           (-30.0 30.0)
           (-30.0 30.0)
  end
  begin
     id 16
     name head
     direction 0.0188154 0.998548 -0.0504727  
     length 1.45845  
     axis 0 0 0   XYZ
    dof rx ry rz
    limits (-20.0 45.0)
           (-30.0 30.0)
           (-30.0 30.0)
  end
  begin
     id 17 
     name lclavicle
     direction 0.961559 0.260051 0.088188  
     length 2.86057  
     axis 0 0 0   XYZ
    dof ry rz
    limits (-20.0 10.0)
           (0.0 20.0)
  end
  begin
     id 18 
     name lhumerus
     direction 1 -4.48959e-011 2.88185e-027   
     length 4.36901   
     axis 180 -30 -90   XYZ
    dof rx ry rz
    limits (-60.0 90.0)
           (-90.0 90.0)
           (-90.0 90.0)
  end
  begin
     id 19
     name lradius
     direction 1 -4.48965e-011 -3.92618e-028   
     length 3.21737   
     axis 180 -30 -90   XYZ
    dof rx
    limits (-10.0 170.0)
  end
  begin
     id 20
     name lwrist
     direction 1 -4.49037e-011 2.57246e-027   
     length 1.60869   
     axis -1.61769e-015 90 90   XYZ
    dof ry
    limits (-180.0 0.0)
 end
  begin
     id 21 
     name lhand
     direction 1 -4.48807e-011 5.12958e-027   
     length 0.564313   
     axis -3.27988e-015 90 90   XYZ
    dof rx rz
    limits (-90.0 90.0)
           (-45.0 45.0)
  end
  begin
     id 22 
     name lfingers
     direction 1 -4.48879e-011 1.02687e-026   
     length 0.454963   
     axis -6.5598e-015 90 90   XYZ
    dof rx
    limits (0.0 90.0)
  end
  begin
     id 23
     name lthumb
     direction 0.707107 -6.3475e-011 0.707107   
     length 0.653239   
     axis -90 45 2.19363e-014   XYZ
    dof rx rz
    limits (-45.0 45.0)
           (-45.0 45.0)
  end
  begin
     id 24 
     name rclavicle
     direction -0.954677 0.253915 0.155304   
     length 3.11497  
     axis 0 0 0   XYZ 
    dof ry rz
    limits (-10.0 20.0)
           (-20.0 0.0)
  end
  begin
     id 25 
     name rhumerus
     direction -1 -4.48958e-011 -8.20169e-028  
     length 4.34118   
     axis 180 30 90   XYZ
    dof rx ry rz
    limits (-90.0 60.0)
           (-90.0 90.0)
           (-90.0 90.0)
  end
  begin
     id 26 
     name rradius
     direction -1 -4.48978e-011 1.5676e-027   
     length 3.09531   
     axis 180 30 90   XYZ
    dof rx
    limits (-10.0 170.0)
  end
  begin
     id 27 
     name rwrist
     direction -1 -4.49001e-011 2.57123e-027   
     length 1.54765   
     axis -1.61769e-015 -90 -90   XYZ
    dof ry
    limits (-180.0 0.0)
  end
  begin
     id 28
     name rhand
     direction -1 -4.48847e-011 5.13225e-027   
     length 0.597446   
     axis -3.27988e-015 -90 -90   XYZ
    dof rx rz
    limits (-90.0 90.0)
           (-45.0 45.0)
  end
  begin
     id 29
     name rfingers
     direction -1 -4.49094e-011 1.02974e-026   
     length 0.481677   
     axis -6.5598e-015 -90 -90   XYZ
    dof rx
    limits (0.0 90.0)
  end
  begin
     id 30
     name rthumb
     direction -0.707107 -6.34859e-011 0.707107   
     length 0.691594   
     axis -90 -45 -2.19363e-014   XYZ
    dof rx rz
    limits (-45.0 45.0)
           (-45.0 45.0)
  end
:hierarchy
  begin
    root lhipjoint rhipjoint lowerback
    lhipjoint lfemur
    lfemur ltibia
    ltibia lfoot
    lfoot ltoes
    rhipjoint rfemur
    rfemur rtibia
    rtibia rfoot
    rfoot rtoes
    lowerback upperback
    upperback thorax
    thorax lowerneck lclavicle rclavicle
    lowerneck upperneck
    upperneck head
    lclavicle lhumerus
    lhumerus lradius
    lradius lwrist
    lwrist lhand lthumb
    lhand lfingers
    rclavicle rhumerus
    rhumerus rradius
    rradius rwrist
    rwrist rhand rthumb
    rhand rfingers
  end

#!OML:ASF I:\Acrobat_Osman\acrobat\cartwheel_test 2\Patient 1\Session 1\acrobat.ASF
:FULLY-SPECIFIED
:DEGREES
81
root 10.0606 15.6234 -0.877208 -162.872 -71.6257 167.359
lowerback -0.885323 -9.63274 -5.98892
upperback 2.28642 -12.918 3.4153
thorax 4.9956 -6.72681 5.93335
lowerneck -12.7472 4.39519 1.54086
upperneck 6.7588 6.6279 -12.5214
head 4.62327 2.42037 -3.62347
rclavicle -2.52059e-013 3.89618e-014
rhumerus -33.4305 -30.839 -4.52242
rradius 27.3684
rwrist -2.9529
rhand -33.3155 29.6941
rfingers 7.12502
rthumb -6.51875 -0.185597
lclavicle -2.52059e-013 3.89618e-014
lhumerus -6.60262 10.8329 24.9793
lradius 29.0826
lwrist 30.2337
lhand -18.0731 44.783
lfingers 7.12502
lthumb 8.19983 74.6038
rfemur -21.306 3.75809 8.47034
rtibia 34.749
rfoot -18.0755 -9.83181
rtoes -13.749
lfemur 1.6937 -1.10359 -12.5558
ltibia 17.272
lfoot -13.7556 27.9942
ltoes -18.3323
82
root 10.0616 15.6441 -0.867369 -161.512 -74.1824 166.268
lowerback -1.13904 -8.62327 -5.62705
upperback 2.4445 -11.5734 3.57992
thorax 5.0497 -6.05706 6.01578
lowerneck -12.5905 4.72506 2.00454
upperneck 6.68971 7.05711 -13.0653
head 4.64728 2.62349 -3.8334
rclavicle 1.17084e-013 -1.66979e-014
rhumerus -30.9333 -30.9383 -4.96645
rradius 27.8284
rwrist -2.77391
rhand -32.9958 30.0105
rfingers 7.12502
rthumb -6.21019 0.121547
lclavicle 1.17084e-013 -1.66979e-014
lhumerus -10.0448 8.86834 21.0137
lradius 30.0642
lwrist 33.2065
lhand -17.0312 43.9068
lfingers 7.12502
lthumb 9.20521 73.6859
rfemur -20.3577 2.93863 8.72051
rtibia 33.8862
rfoot -18.1428 -11.2439
rtoes -13.5826
lfemur 0.507907 -1.35201 -11.7987
ltibia 17.4341
lfoot -12.567 26.1208
ltoes -21.0402
83
root 10.0595 15.6636 -0.852933 -159.354 -76.8817 164.395
lowerback -1.37742 -7.5754 -5.26176
upperback 2.47822 -10.1697 3.66993
thorax 4.94611 -5.34517 6.03373
lowerneck -12.2487 5.07629 2.50404
upperneck 6.83582 7.52281 -13.3661
head 4.70286 2.86432 -3.97207
rclavicle -2.98177e-014 1.98785e-014
rhumerus -28.6559 -30.6203 -5.59579
rradius 28.2658
rwrist -2.72296
rhand -32.6756 30.3846
rfingers 7.12502
rthumb -5.90099 0.486767
lclavicle -2.98177e-014 1.98785e-014
lhumerus -13.0005 9.95456 17.5673
lradius 29.6949
lwrist 32.1483
lhand -15.2997 42.029
lfingers 7.12502
lthumb 10.8757 71.7274
rfemur -19.3441 2.10029 8.93027
rtibia 32.966
rfoot -18.3154 -12.7796
rtoes -12.9491
lfemur -0.826587 -1.68369 -11.1171
ltibia 17.7237
lfoot -11.8784 24.1075
ltoes -23.2115
84
root 10.0564 15.682 -0.821223 -155.451 -79.8297 160.824
lowerback -1.60386 -6.37447 -4.52059
upperback 2.35951 -8.54852 3.45071
thorax 4.54526 -4.48781 5.54813
lowerneck -11.9944 5.1942 3.27936
upperneck 7.54693 7.66658 -13.1867
head 4.90796 2.96969 -4.03206
rclavicle -1.64991e-014 8.74653e-015
rhumerus -27.2431 -29.6168 -6.1033
rradius 28.7211
rwrist -2.36692
rhand -32.5401 30.7697
rfingers 7.12502
rthumb -5.77019 0.868226
lclavicle -1.64991e-014 8.74653e-015
lhumerus -15.0133 8.76611 14.4823
lradius 29.9416
lwrist 33.2059
lhand -14.9025 41.7626
lfingers 7.12502
lthumb 11.2588 71.4404
rfemur -18.2952 1.12437 9.06462
rtibia 31.9919
rfoot -18.5046 -14.4147
rtoes -12.3256
lfemur -2.40268 -2.33137 -10.52
ltibia 18.0818
lfoot -11.486 22.0785
ltoes -24.6961
85
root 10.0496 15.6994 -0.780089 -148.149 -82.8078 153.796
lowerback -1.86521 -5.12288 -3.72604
upperback 2.28545 -6.87074 3.23924
thorax 4.25425 -3.6087 5.01542
lowerneck -12.1044 5.22739 3.72578
upperneck 8.45432 7.72921 -12.7513
head 5.20531 3.02026 -3.95904
rclavicle 8.46823e-014 -3.10104e-014
rhumerus -25.5865 -27.5384 -7.00986
rradius 29.3901
rwrist -3.07228
rhand -32.4017 26.9141
rfingers 7.12502
rthumb -5.63655 -2.99098
lclavicle 8.46823e-014 -3.10104e-014
lhumerus -17.0009 7.98889 12.075
lradius 30.3496
lwrist 34.0212
lhand -14.9276 40.9902
lfingers 7.12502
lthumb 11.2346 70.6694
rfemur -17.1306 0.0855241 9.16857
rtibia 30.9632
rfoot -18.6716 -16.0905
rtoes -11.8708
lfemur -4.01867 -3.18458 -10.0108
ltibia 18.5467
lfoot -11.1189 20.1501
ltoes -26.4826
86
root 10.0393 15.7157 -0.743756 -131.959 -85.6581 137.805
lowerback -2.12723 -4.01887 -3.2629
upperback 2.26899 -5.41132 3.42772
thorax 4.18087 -2.86912 5.04901
lowerneck -12.2716 5.41329 3.61729
upperneck 9.21291 8.07401 -12.5282
head 5.48259 3.17058 -3.83421
rclavicle 8.48811e-014 -1.19271e-014
rhumerus -23.015 -28.7054 -7.29847
rradius 28.9084
rwrist 0.270368
rhand -31.4669 32.7499
rfingers 7.12502
rthumb -4.734 2.82282
lclavicle 8.48811e-014 -1.19271e-014
lhumerus -19.3396 8.88086 10.2098
lradius 30.298
lwrist 33.7108
lhand -14.6916 40.0296
lfingers 7.12502
lthumb 11.4622 69.6963
rfemur -15.8231 -0.752117 9.40979
rtibia 29.9088
rfoot -19.0382 -17.8693
rtoes -10.6727
lfemur -5.6404 -4.01876 -9.36485
ltibia 19.14
lfoot -10.9127 18.0074
ltoes -28.478
87
root 10.0324 15.7255 -0.706605 -79.7914 -87.4934 85.7744
lowerback -2.31148 -3.12358 -2.80396
upperback 2.26332 -4.25018 3.83444
thorax 4.14033 -2.28639 5.29293
lowerneck -12.4452 5.76769 3.2665
upperneck 9.93529 8.70142 -12.4887
head 5.77385 3.4306 -3.6983
rclavicle -1.68967e-014 -3.81667e-014
rhumerus -19.1604 -26.1854 -9.03779
rradius 29.3496
rwrist -1.603
rhand -30.9103 28.0191
rfingers 7.12502
rthumb -4.19652 -1.91927
lclavicle -1.68967e-014 -3.81667e-014
lhumerus -22.5522 8.6747 8.71477
lradius 30.7558
lwrist 34.6683
lhand -14.6174 39.089
lfingers 7.12502
lthumb 11.5337 68.7516
rfemur -14.4107 -1.39934 9.84812
rtibia 28.893
rfoot -19.8296 -19.7159
rtoes -8.55943
lfemur -7.34669 -4.69091 -8.48436
ltibia 19.7915
lfoot -11.3422 15.4361
ltoes -28.7921
88
root 10.0253 15.7257 -0.660679 -25.203 -85.7781 31.2602
lowerback -2.59029 -2.04991 -2.19826
upperback 2.22548 -2.8387 3.94365
thorax 4.06681 -1.56363 5.15325
lowerneck -12.3421 5.97512 3.4619
upperneck 10.7867 9.06569 -12.5313
head 6.06327 3.58545 -3.70817
rclavicle 4.37326e-014 -4.29375e-014
rhumerus -16.3418 -26.5599 -10.1841
rradius 29.4639
rwrist -0.265607
rhand -29.5973 28.6778
rfingers 7.12502
rthumb -2.92852 -1.28185
lclavicle 4.37326e-014 -4.29375e-014
lhumerus -25.1075 7.97858 7.63626
lradius 31.0202
lwrist 35.6072
lhand -15.4522 38.5107
lfingers 7.12502
lthumb 10.7286 68.2168
rfemur -12.9464 -2.16553 10.1694
rtibia 27.9169
rfoot -20.6646 -21.5065
rtoes -7.21262
lfemur -9.04168 -5.12164 -7.79379
ltibia 20.4842
lfoot -12.1224 12.7237
ltoes -28.1198
89
root 10.0152 15.7183 -0.609335 -10.398 -82.7167 16.5074
lowerback -3.00679 -0.522345 -1.42631
upperback 2.14501 -0.799912 3.52828
thorax 3.97493 -0.508826 4.40717
lowerneck -11.9465 5.85098 4.68708
upperneck 11.7134 8.82273 -12.6286
head 6.32025 3.50509 -3.9755
rclavicle 4.57205e-015 3.81667e-014
rhumerus -15.0987 -27.2624 -10.6236
rradius 29.1702
rwrist 1.91141
rhand -29.3778 33.2304
rfingers 7.12502
rthumb -2.7166 3.26799
lclavicle 4.57205e-015 3.81667e-014
lhumerus -25.8313 6.69933 7.00918
lradius 31.181
lwrist 36.4343
lhand -15.689 37.6104
lfingers 7.12502
lthumb 10.5001 67.3282
rfemur -11.4692 -2.99462 10.2794
rtibia 26.9603
rfoot -21.5291 -23.196
rtoes -6.1171
lfemur -10.6953 -5.62477 -7.46248
ltibia 21.2452
lfoot -12.582 10.5666
ltoes -30.174
90
root 10.0088 15.7137 -0.556435 -4.8897 -79.3828 11.0398
lowerback -3.3782 0.972246 -0.670429
upperback 2.04867 1.18265 3.1601
thorax 3.92976 0.511195 3.7248
lowerneck -11.3202 5.69688 5.5135
upperneck 12.2827 8.5715 -12.7273
head 6.40447 3.42654 -4.18599
rclavicle -4.67144e-014 -2.22639e-014
rhumerus -13.5658 -24.9057 -11.8229
rradius 29.4476
rwrist 2.18157
rhand -30.8939 34.286
rfingers 7.12502
rthumb -4.18072 4.34726
lclavicle -4.67144e-014 -2.22639e-014
lhumerus -26.5293 6.06673 6.68613
lradius 30.9437
lwrist 36.1808
lhand -15.9269 36.7769
lfingers 7.12502
lthumb 10.2706 66.5062
rfemur -9.96508 -3.56963 10.2918
rtibia 26.0646
rfoot -23.1712 -24.6818
rtoes -3.04941
lfemur -12.3898 -6.50977 -7.2775
ltibia 22.0522
lfoot -13.0299 8.73042
ltoes -32.5231
